<svg width="33" height="33" viewBox="0 0 33 33" fill="none" xmlns="http://www.w3.org/2000/svg">
<path d="M15.0847 16.4876H4.8125C4.05311 16.4876 3.4375 17.1032 3.4375 17.8626L3.43767 17.8847L3.4375 17.9067V20.662C3.4375 21.4214 4.05311 22.037 4.8125 22.037C5.57189 22.037 6.1875 21.4214 6.1875 20.662V19.2376H15.0847V20.6823C15.0847 21.4417 15.7003 22.0573 16.4597 22.0573C17.2191 22.0573 17.8347 21.4417 17.8347 20.6823V19.2376H26.8125V20.6621C26.8125 21.4214 27.4281 22.037 28.1875 22.037C28.9469 22.037 29.5625 21.4214 29.5625 20.6621V17.9294L29.5621 17.896L29.5625 17.8626C29.5625 17.1032 28.9469 16.4876 28.1875 16.4876H17.8347C18.0538 16.4877 15.0847 16.4876 15.0847 16.4876Z" fill="#E1683B"/>
<path d="M16.5 23.375C13.8421 23.375 11.6875 25.5296 11.6875 28.1875C11.6875 30.8454 13.8421 33 16.5 33C19.1579 33 21.3125 30.8454 21.3125 28.1875C21.3125 25.5296 19.1579 23.375 16.5 23.375Z" fill="#E1683B"/>
<path d="M23.375 28.1875C23.375 25.5296 25.5296 23.375 28.1875 23.375C30.8454 23.375 33 25.5296 33 28.1875C33 30.8454 30.8454 33 28.1875 33C25.5296 33 23.375 30.8454 23.375 28.1875Z" fill="#E1683B"/>
<path d="M4.8125 23.375C2.15463 23.375 0 25.5296 0 28.1875C0 30.8454 2.15463 33 4.8125 33C7.47037 33 9.625 30.8454 9.625 28.1875C9.625 25.5296 7.47037 23.375 4.8125 23.375Z" fill="#E1683B"/>
<path d="M19.9223 3.42184C19.9223 5.31166 18.3903 6.84367 16.5005 6.84367C14.6106 6.84367 13.0786 5.31166 13.0786 3.42184C13.0786 1.53201 14.6106 0 16.5005 0C18.3903 0 19.9223 1.53201 19.9223 3.42184Z" fill="#E1683B"/>
<path d="M16.5019 7.69812C13.5512 7.69812 11.7817 8.63944 10.7825 9.89099C9.8168 11.1006 9.66299 12.487 9.65992 13.2542C9.65683 14.0256 10.3766 14.5291 11.1145 14.5291H21.8893C22.6272 14.5291 23.347 14.0256 23.3439 13.2542C23.3408 12.487 23.187 11.1006 22.2213 9.89099C21.2221 8.63944 19.4526 7.69812 16.5019 7.69812Z" fill="#E1683B"/>
</svg>
