<svg width="28" height="25" viewBox="0 0 28 25" fill="none" xmlns="http://www.w3.org/2000/svg">
<path d="M16.2111 5C16.2111 7.76142 13.9779 10 11.2231 10C8.4683 10 6.23509 7.76142 6.23509 5C6.23509 2.23858 8.4683 0 11.2231 0C13.9779 0 16.2111 2.23858 16.2111 5Z" fill="#E1683B"/>
<path d="M11.223 12.5C6.38296 12.5 3.48031 14.2225 1.84136 16.5127C0.257346 18.7262 0.0050537 21.2631 1.62412e-05 22.667C-0.00504916 24.0786 1.17558 25 2.38602 25H18.4107C19.1714 25 19.4516 24.2385 18.9124 23.7007C17.3902 22.1825 15.8816 20.6502 14.3633 19.1285C12.2702 17.0307 11.6432 14.63 12.0987 12.5482C11.6624 12.5164 11.6956 12.5 11.223 12.5Z" fill="#E1683B"/>
<path d="M17.4678 10.0045C19.016 9.61639 20.0326 10.102 20.6516 10.7224C20.719 10.79 20.7813 10.8588 20.8389 10.9276C20.9065 11.0085 21.0064 11.0553 21.1116 11.0553C21.2169 11.0553 21.3168 11.0085 21.3844 10.9276C21.4419 10.8588 21.5043 10.79 21.5717 10.7224C22.1907 10.1019 23.2073 9.6164 24.7559 10.0045C26.3026 10.3921 27.4699 11.5579 27.8595 13.0226C28.2517 14.4971 27.8462 16.2298 26.3441 17.7355C24.6821 19.4015 23.2634 20.8243 22.3705 21.7199C21.6759 22.4167 20.5511 22.417 19.8561 21.7205L15.8801 17.7355C14.3774 16.2294 13.9718 14.4967 14.3642 13.0222C14.7539 11.5577 15.9215 10.3921 17.4678 10.0045Z" fill="#E1683B"/>
</svg>
