<svg width="34" height="33" viewBox="0 0 34 33" fill="none" xmlns="http://www.w3.org/2000/svg">
<path d="M16.9999 7.09731C18.9469 7.09731 20.5253 5.50852 20.5253 3.54865C20.5253 1.58879 18.9469 0 16.9999 0C15.0529 0 13.4745 1.58879 13.4745 3.54865C13.4745 5.50852 15.0529 7.09731 16.9999 7.09731Z" fill="#E1683B"/>
<path d="M11.1089 10.2576C12.1383 8.95963 13.9614 7.98342 17.0014 7.98342C20.0414 7.98342 21.8645 8.95963 22.8939 10.2576C23.8888 11.512 24.0473 12.9498 24.0505 13.7454C24.0536 14.5454 23.3121 15.0676 22.5518 15.0676H11.4509C10.6907 15.0676 9.94913 14.5454 9.95231 13.7454C9.95548 12.9498 10.1139 11.512 11.1089 10.2576Z" fill="#E1683B"/>
<path d="M7.04759 25.0297C8.99462 25.0297 10.573 23.4409 10.573 21.4811C10.573 19.5212 8.99462 17.9324 7.04759 17.9324C5.10056 17.9324 3.52218 19.5212 3.52218 21.4811C3.52218 23.4409 5.10056 25.0297 7.04759 25.0297Z" fill="#E1683B"/>
<path d="M1.15655 28.19C2.18596 26.892 4.00909 25.9158 7.04908 25.9158C10.0891 25.9158 11.9122 26.892 12.9416 28.19C13.9365 29.4444 14.095 30.8822 14.0982 31.6778C14.1013 32.4778 13.3598 33 12.5995 33H1.49864C0.738374 33 -0.00317135 32.4778 1.0201e-05 31.6778C0.00317419 30.8822 0.161637 29.4444 1.15655 28.19Z" fill="#E1683B"/>
<path d="M30.4748 21.4811C30.4748 23.4409 28.8965 25.0297 26.9494 25.0297C25.0024 25.0297 23.424 23.4409 23.424 21.4811C23.424 19.5212 25.0024 17.9324 26.9494 17.9324C28.8965 17.9324 30.4748 19.5212 30.4748 21.4811Z" fill="#E1683B"/>
<path d="M26.9509 25.9158C23.9109 25.9158 22.0878 26.892 21.0584 28.19C20.0635 29.4444 19.905 30.8822 19.9018 31.6778C19.8987 32.4778 20.6402 33 21.4005 33H32.5014C33.2616 33 34.0032 32.4778 34 31.6778C33.9968 30.8822 33.8384 29.4444 32.8435 28.19C31.814 26.892 29.9909 25.9158 26.9509 25.9158Z" fill="#E1683B"/>
<path d="M17.9905 17.1568C17.9905 16.6055 17.5465 16.1586 16.9989 16.1586C16.4512 16.1586 16.0072 16.6055 16.0072 17.1568V20.3746H13.1369C12.5893 20.3746 12.1453 20.8215 12.1453 21.3728C12.1453 21.9241 12.5893 22.371 13.1369 22.371H20.8719C21.4195 22.371 21.8635 21.9241 21.8635 21.3728C21.8635 20.8215 21.4195 20.3746 20.8719 20.3746H17.9905V17.1568Z" fill="#E1683B"/>
</svg>
