<svg width="29" height="29" viewBox="0 0 29 29" fill="none" xmlns="http://www.w3.org/2000/svg">
<path d="M19.3611 4.50022C19.3611 6.98562 17.3123 9.00044 14.7849 9.00044C12.2576 9.00044 10.2087 6.98562 10.2087 4.50022C10.2087 2.01482 12.2576 0 14.7849 0C17.3123 0 19.3611 2.01482 19.3611 4.50022Z" fill="#E1683B"/>
<path d="M20.4729 22.2541L17.1393 24.2152C16.7947 24.4179 16.8007 24.9108 17.1501 25.1053L23.6258 28.7111C23.946 28.8894 24.3393 28.8829 24.6532 28.694L25.2123 28.3577C27.2978 27.103 27.5185 24.207 25.6464 22.6608C25.5029 22.5423 25.3535 22.4338 25.1992 22.3356H27.2231C28.2045 22.3356 29 21.5532 29 20.5882C29 19.6231 28.2045 18.8408 27.2231 18.8408H26.0803C25.9135 18.8408 25.7567 18.7627 25.6581 18.6305L20.1292 11.2215C19.6359 10.5604 18.8519 10.1699 18.0181 10.1699H10.6588C9.81814 10.1699 9.02856 10.5668 8.53622 11.2369L3.10631 18.6274C3.00784 18.7614 2.84992 18.8408 2.68179 18.8408H1.77689C0.79554 18.8408 0 19.6231 0 20.5882C0 21.5532 0.795542 22.3356 1.77689 22.3356H3.7473C3.17516 22.6572 2.66577 23.1046 2.26534 23.6673C0.66687 25.9139 2.3012 29 5.08936 29H18.3388C18.8774 29 19.0652 28.2965 18.596 28.0363L8.28752 22.3215C7.44507 21.8544 6.51148 21.6757 5.60942 21.7579C5.79932 21.6059 5.9688 21.4268 6.11137 21.2238L9.52134 16.3681V20.2099C9.52134 20.6686 9.76952 21.0927 10.1728 21.3231L13.1302 23.0131C13.9635 23.4892 14.9954 23.4768 15.8165 22.9808L18.5529 21.3278C18.9406 21.0936 19.1769 20.6782 19.1769 20.2307V16.3681L22.4885 21.1997C22.5971 21.3582 22.7221 21.5025 22.8603 21.6311C22.0396 21.6146 21.2114 21.8197 20.4729 22.2541Z" fill="#E1683B"/>
</svg>
