<svg width="28" height="37" viewBox="0 0 28 37" fill="none" xmlns="http://www.w3.org/2000/svg">
<path d="M16.2527 1.55947C16.2527 0.698197 15.6486 0 14.9035 0C14.1583 0 13.5543 0.698197 13.5543 1.55947V3.49315C13.5543 4.35442 14.1583 5.05262 14.9035 5.05262C15.6486 5.05262 16.2527 4.35442 16.2527 3.49315V1.55947Z" fill="#E1683B"/>
<path d="M6.32716 4.51588C5.77144 3.94211 4.91853 3.99768 4.42213 4.64C3.92572 5.28232 3.9738 6.26815 4.52951 6.84192L5.82759 8.18219C6.38331 8.75596 7.23622 8.70039 7.73262 8.05807C8.22903 7.41576 8.18095 6.42992 7.62524 5.85615L6.32716 4.51588Z" fill="#E1683B"/>
<path d="M0 16.729C0 15.8677 0.604056 15.1695 1.3492 15.1695H2.91142C3.65656 15.1695 4.26062 15.8677 4.26062 16.729C4.26062 17.5902 3.65656 18.2884 2.91142 18.2884H1.3492C0.604056 18.2884 0 17.5902 0 16.729Z" fill="#E1683B"/>
<path d="M14.8526 6.68737C10.2953 6.68957 5.64713 10.9218 5.64713 17.1774C5.64713 21.0101 7.697 23.7725 9.2503 25.3275C10.2075 26.2858 10.7809 27.4726 10.7809 28.6115V29.6601C10.7809 29.9185 10.9621 30.128 11.1857 30.128H14.8526V6.68737Z" fill="#E1683B"/>
<path d="M11.1857 32.2834C10.9621 32.2834 10.7788 32.4938 10.7993 32.751C10.9561 34.7152 12.0962 36.0397 13.4793 36.0397H16.4002C17.7817 36.0397 18.9207 34.6856 19.0797 32.751C19.1008 32.4938 18.9174 32.2834 18.6939 32.2834H11.1857Z" fill="#E1683B"/>
<path d="M16.8921 29.9531V6.72517C17.8716 6.10544 19.6892 5.58533 20.5272 7.32741C20.065 7.59197 19.6577 7.95102 19.3252 8.38381C18.264 9.76479 18.0247 11.8365 19.1358 13.6466C19.3857 14.0537 19.874 14.1497 20.2264 13.8609C20.5788 13.5721 20.6619 13.0079 20.4119 12.6008C19.7407 11.5074 19.8952 10.3646 20.4951 9.58399C20.6831 9.33934 20.9206 9.12469 21.1995 8.96089C23.3173 8.43789 24.6171 10.6717 24.2463 12.507C26.4219 12.9595 27.7274 14.7695 27.4228 17.1325C27.2807 18.2349 26.7371 19.1628 26.1734 19.8347C25.9548 19.5203 25.705 19.2435 25.4329 19.0094C24.2165 17.9628 22.4124 17.7089 21.1975 19.097C20.8903 19.4479 20.8876 20.0202 21.1913 20.3752C21.4951 20.7301 21.9904 20.7333 22.2976 20.3823C22.7979 19.8106 23.6962 19.7689 24.4985 20.4593C24.8719 20.7806 25.1957 21.2497 25.3754 21.8496C25.5117 22.7668 25.3524 23.9979 24.2463 25.026C24.9353 26.9534 23.7809 29.7189 21.5383 29.5392C21.6751 29.1122 21.7472 28.6689 21.7572 28.2301C21.7918 26.716 21.0473 25.0843 19.5596 24.7764C19.1343 24.6884 18.7279 25.0153 18.6517 25.5067C18.5755 25.998 18.8585 26.4677 19.2838 26.5557C19.7823 26.6589 20.2142 27.2647 20.1933 28.1825C20.1846 28.5607 20.092 28.9661 19.8881 29.3407C18.9708 30.7219 17.9119 30.8017 16.8921 29.9531Z" fill="#E1683B"/>
</svg>
