<svg width="24" height="33" viewBox="0 0 24 33" fill="none" xmlns="http://www.w3.org/2000/svg">
<path d="M5.56348 3.76787C5.58865 3.45111 5.53313 3.13007 5.35886 2.85168L4.12018 0.87291C3.53116 -0.0680462 2.10059 -0.291035 1.17745 0.414214C0.547819 0.895234 0.345678 1.67799 0.677619 2.34972L6.52056 14.1738L6.2238 31.0658C6.2238 31.5787 6.45634 32.0707 6.87026 32.4335C7.28418 32.7962 7.84557 33 8.43094 33C9.01631 33 9.5777 32.7962 9.99162 32.4335C10.4055 32.0707 10.6381 31.5787 10.6381 31.0658L11.5711 21.6661H12.6714L13.4333 31.0658C13.4333 31.5787 13.6659 32.0707 14.0798 32.4335C14.4937 32.7962 15.0551 33 15.6405 33C16.2258 33 16.7872 32.7962 17.2011 32.4335C17.6151 32.0707 17.8476 31.5787 17.8476 31.0658L17.2011 15.5057L20.7328 22.1891C21.1279 22.9368 22.1621 23.2359 22.9873 22.8411C23.6818 22.5088 24.0026 21.7867 23.7472 21.1304L20.0751 11.6946C19.6196 10.5241 18.3539 9.74519 16.943 9.767L12.0795 9.84217C10.9566 9.79019 10.0035 9.70126 9.03387 9.21282C7.1087 8.243 5.5486 6.3418 5.5486 4.1436C5.5486 4.01728 5.55361 3.89199 5.56348 3.76787Z" fill="#E1683B"/>
<path d="M16.5588 4.14364C16.5588 6.29766 14.5662 8.04383 12.1083 8.04383C9.65041 8.04383 7.65788 6.29766 7.65788 4.14364C7.65788 1.98963 9.65041 0.243454 12.1083 0.243454C14.5662 0.243454 16.5588 1.98963 16.5588 4.14364Z" fill="#E1683B"/>
</svg>
