<svg width="41" height="42" viewBox="0 0 41 42" fill="none" xmlns="http://www.w3.org/2000/svg">
<path d="M12.8125 21.3994L17.9375 26.5244L28.1875 16.2744M13.325 36.7744H27.675C30.5453 36.7744 31.9804 36.7744 33.0767 36.2158C34.041 35.7245 34.8251 34.9404 35.3164 33.9761C35.875 32.8798 35.875 31.4447 35.875 28.5744V14.2244C35.875 11.3541 35.875 9.91901 35.3164 8.82271C34.8251 7.85838 34.041 7.07436 33.0767 6.58301C31.9804 6.02441 30.5453 6.02441 27.675 6.02441H13.325C10.4547 6.02441 9.0196 6.02441 7.9233 6.58301C6.95897 7.07436 6.17494 7.85838 5.68359 8.82271C5.125 9.91901 5.125 11.3541 5.125 14.2244V28.5744C5.125 31.4447 5.125 32.8798 5.68359 33.9761C6.17494 34.9404 6.95897 35.7245 7.9233 36.2158C9.0196 36.7744 10.4547 36.7744 13.325 36.7744Z" stroke="#F3ECDA" stroke-width="2" stroke-linecap="round" stroke-linejoin="round"/>
</svg>
