<svg width="17" height="12" viewBox="0 0 17 12" fill="none" xmlns="http://www.w3.org/2000/svg">
<path d="M15.376 0.750335L15.376 0.750337C15.1617 0.756251 14.9547 0.838911 14.7997 0.986017L5.80398 9.31893L2.2035 5.98373C2.12478 5.90829 2.03174 5.84897 1.93022 5.80832C1.82787 5.76734 1.71835 5.74592 1.60793 5.74488C1.4975 5.74384 1.38759 5.76319 1.28445 5.8022C1.1813 5.84121 1.08637 5.89934 1.00569 5.97408L1.00569 5.97408C0.924968 6.04885 0.860023 6.13887 0.815706 6.23942C0.771361 6.34004 0.748839 6.4486 0.750046 6.55854C0.751254 6.66848 0.776153 6.77652 0.822645 6.87616C0.86872 6.97491 0.934817 7.06291 1.01611 7.13569L5.21028 11.0208L5.21032 11.0209C5.37083 11.1695 5.58465 11.25 5.80398 11.25C6.0233 11.25 6.23713 11.1695 6.39763 11.0209L6.39767 11.0208L15.9871 2.13798C16.1102 2.02658 16.1969 1.88096 16.2323 1.71876L15.9881 1.66541L16.2323 1.71875C16.2679 1.55571 16.2493 1.38675 16.18 1.23499C16.1108 1.08355 15.9954 0.958247 15.852 0.873032C15.7088 0.787911 15.543 0.745774 15.376 0.750335Z" fill="#E1683B" stroke="#E1683B" stroke-width="0.5"/>
</svg>
