<svg width="25" height="22" viewBox="0 0 25 22" fill="none" xmlns="http://www.w3.org/2000/svg">
<path d="M18.3281 17.1111C18.9909 17.1111 19.5281 16.5639 19.5281 15.8889C19.5281 15.2139 18.9909 14.6667 18.3281 14.6667C17.6654 14.6667 17.1281 15.2139 17.1281 15.8889C17.1281 16.5639 17.6654 17.1111 18.3281 17.1111Z" fill="#E1683B"/>
<path fill-rule="evenodd" clip-rule="evenodd" d="M5.12813 1.22222C5.12813 0.547208 5.66538 0 6.32812 0C6.99087 0 7.52813 0.547208 7.52813 1.22222V2.44444H17.1281V1.22222C17.1281 0.547208 17.6654 0 18.3281 0C18.9909 0 19.5281 0.547208 19.5281 1.22222V2.44444H20.7281C22.7164 2.44444 24.3281 4.08607 24.3281 6.11111V18.3333C24.3281 20.3584 22.7164 22 20.7281 22H3.92813C1.9399 22 0.328125 20.3584 0.328125 18.3333V6.11111C0.328125 4.08607 1.9399 2.44444 3.92813 2.44444H5.12813V1.22222ZM2.72813 18.3333V9.77778H21.9281V18.3333C21.9281 19.0083 21.3909 19.5556 20.7281 19.5556H3.92813C3.26538 19.5556 2.72813 19.0083 2.72813 18.3333Z" fill="#E1683B"/>
</svg>
