<svg width="20" height="20" viewBox="0 0 20 20" fill="none" xmlns="http://www.w3.org/2000/svg">
<path d="M10.5 4.98197C13.1715 4.98197 15.3765 7.18698 15.3765 9.85843C15.3765 12.5723 13.1715 14.7349 10.5 14.7349C7.78614 14.7349 5.62354 12.5723 5.62354 9.85843C5.62354 7.18698 7.78614 4.98197 10.5 4.98197ZM10.5 13.0387C12.2386 13.0387 13.6379 11.6394 13.6379 9.85843C13.6379 8.11987 12.2386 6.72054 10.5 6.72054C8.71903 6.72054 7.3197 8.11987 7.3197 9.85843C7.3197 11.6394 8.76144 13.0387 10.5 13.0387ZM16.691 4.81236C16.691 5.44842 16.1821 5.95727 15.5461 5.95727C14.91 5.95727 14.4012 5.44842 14.4012 4.81236C14.4012 4.1763 14.91 3.66745 15.5461 3.66745C16.1821 3.66745 16.691 4.1763 16.691 4.81236ZM19.9137 5.95727C19.9985 7.52621 19.9985 12.2331 19.9137 13.802C19.8289 15.3285 19.4896 16.6431 18.3871 17.788C17.2846 18.8905 15.9277 19.2297 14.4012 19.3145C12.8322 19.3993 8.12538 19.3993 6.55643 19.3145C5.02989 19.2297 3.71536 18.8905 2.57045 17.788C1.46795 16.6431 1.12872 15.3285 1.04391 13.802C0.959102 12.2331 0.959102 7.52621 1.04391 5.95727C1.12872 4.43072 1.46795 3.07379 2.57045 1.97129C3.71536 0.868787 5.02989 0.529555 6.55643 0.444747C8.12538 0.359939 12.8322 0.359939 14.4012 0.444747C15.9277 0.529555 17.2846 0.868787 18.3871 1.97129C19.4896 3.07379 19.8289 4.43072 19.9137 5.95727ZM17.8783 15.4558C18.3871 14.226 18.2599 11.2578 18.2599 9.85843C18.2599 8.50151 18.3871 5.53323 17.8783 4.26111C17.5391 3.45543 16.903 2.77697 16.0973 2.48014C14.8252 1.97129 11.8569 2.0985 10.5 2.0985C9.10067 2.0985 6.13239 1.97129 4.90267 2.48014C4.05459 2.81937 3.41853 3.45543 3.0793 4.26111C2.57045 5.53323 2.69767 8.50151 2.69767 9.85843C2.69767 11.2578 2.57045 14.226 3.0793 15.4558C3.41853 16.3038 4.05459 16.9399 4.90267 17.2791C6.13239 17.788 9.10067 17.6608 10.5 17.6608C11.8569 17.6608 14.8252 17.788 16.0973 17.2791C16.903 16.9399 17.5815 16.3038 17.8783 15.4558Z" fill="#F3ECDA"/>
</svg>
