<svg width="19" height="19" viewBox="0 0 19 19" fill="none" xmlns="http://www.w3.org/2000/svg">
<path d="M4.24191 19H0.298334V6.32121H4.24191V19ZM2.24892 4.62505C1.0192 4.62505 0.00150585 3.56495 0.00150585 2.29283C0.00150585 1.06311 1.0192 0.0454155 2.24892 0.0454155C3.52104 0.0454155 4.53873 1.06311 4.53873 2.29283C4.53873 3.56495 3.52104 4.62505 2.24892 4.62505ZM18.9561 19H15.0549V12.8514C15.0549 11.3673 15.0125 9.50151 12.9771 9.50151C10.9417 9.50151 10.6449 11.0705 10.6449 12.7242V19H6.70134V6.32121H10.4753V8.05977H10.5177C11.0689 7.08448 12.3411 6.02438 14.2492 6.02438C18.2352 6.02438 18.9985 8.65343 18.9985 12.0457V19H18.9561Z" fill="#F3ECDA"/>
</svg>
