<svg width="288" height="42" viewBox="0 0 288 42" fill="none" xmlns="http://www.w3.org/2000/svg">
<path d="M109.756 40.6736H92.4902C92.9894 40.2217 93.3595 39.6365 93.5489 38.9867C93.8071 38.2637 93.9405 37.4977 93.9405 36.7274V4.2019C93.9405 3.43159 93.8071 2.66988 93.5489 1.9426C93.3595 1.29708 92.9937 0.716113 92.4902 0.268555H100.662C100.163 0.720417 99.7975 1.29708 99.6038 1.9426C99.3542 2.66988 99.2251 3.43159 99.2208 4.2019V37.2222H106.64C107.41 37.2136 108.172 37.0802 108.899 36.8306C109.54 36.6327 110.121 36.2669 110.573 35.772L109.756 40.6693V40.6736Z" fill="#30422E"/>
<path d="M113.982 8.09653C113.982 7.32622 113.848 6.56451 113.59 5.83722C113.401 5.19171 113.035 4.61074 112.531 4.16318H120.703C120.204 4.61504 119.839 5.19171 119.645 5.83722C119.395 6.56451 119.266 7.32622 119.262 8.09653V36.7101C119.262 37.4805 119.395 38.2422 119.645 38.9695C119.843 39.615 120.209 40.1959 120.703 40.6564H112.531C113.03 40.2045 113.401 39.6193 113.59 38.9695C113.848 38.2465 113.982 37.4805 113.982 36.7101V8.09653Z" fill="#30422E"/>
<path d="M124.091 8.09653C124.091 7.32622 123.957 6.56451 123.699 5.83722C123.51 5.19171 123.144 4.61074 122.641 4.16318H139.906L140.775 8.97443C140.328 8.47093 139.747 8.10514 139.101 7.91578C138.378 7.65758 137.612 7.52848 136.842 7.52417H129.423V16.2989H134.088C134.862 16.2989 135.628 16.1655 136.356 15.9073C137.001 15.7136 137.578 15.3478 138.03 14.8486V21.0714C137.578 20.5722 137.001 20.2064 136.356 20.0128C135.628 19.7546 134.862 19.6212 134.088 19.6212H129.423V36.5767C129.423 37.3471 129.556 38.1088 129.814 38.8361C130.008 39.4859 130.374 40.0668 130.873 40.523H122.701C123.2 40.0711 123.57 39.4859 123.76 38.8361C124.018 38.1131 124.151 37.3471 124.151 36.5767L124.087 8.10084L124.091 8.09653Z" fill="#30422E"/>
<path d="M143.688 8.09653C143.688 7.32622 143.554 6.56451 143.296 5.83722C143.107 5.19171 142.741 4.61074 142.237 4.16318H159.503L160.372 8.97443C159.924 8.47093 159.344 8.10513 158.698 7.91578C157.975 7.65758 157.209 7.52848 156.439 7.52417H149.02V16.2989H153.684C154.459 16.2989 155.225 16.1655 155.952 15.9073C156.598 15.7136 157.175 15.3478 157.626 14.8486V21.0714C157.175 20.5722 156.598 20.2064 155.952 20.0128C155.225 19.7546 154.459 19.6212 153.684 19.6212H149.02V37.2352H156.439C157.209 37.2266 157.971 37.0931 158.698 36.8435C159.339 36.6456 159.92 36.2798 160.372 35.7849L159.546 40.6822H142.28C142.78 40.2304 143.15 39.6451 143.339 38.9953C143.597 38.2723 143.731 37.5063 143.731 36.736L143.688 8.10083V8.09653Z" fill="#30422E"/>
<path d="M189.055 30.3196C189.077 31.8086 188.801 33.289 188.251 34.6747C187.747 35.9098 186.998 37.0373 186.056 37.9798C185.118 38.9136 183.99 39.6366 182.751 40.1013C181.421 40.6005 180.014 40.8459 178.598 40.8329C177.07 40.8502 175.551 40.579 174.127 40.0282C172.517 39.3482 171.028 38.423 169.707 37.2826L172.005 31.5934C173.171 35.8323 175.323 37.9539 178.46 37.9539C178.964 37.9324 179.463 37.8506 179.945 37.7086C180.586 37.5236 181.18 37.2094 181.692 36.7877C182.308 36.2584 182.794 35.5999 183.121 34.8598C183.551 33.8226 183.749 32.708 183.702 31.5848C183.702 29.6138 183.142 27.6773 182.092 26.0119C180.681 23.9118 178.925 22.0613 176.898 20.5422C174.794 18.9585 172.982 17.0177 171.545 14.81C170.434 13.0327 169.845 10.9799 169.84 8.88414C169.694 6.39675 170.667 3.96961 172.491 2.26975C174.527 0.625832 177.113 -0.174607 179.717 0.031958C181.322 0.0104408 182.914 0.303077 184.399 0.901256C185.001 1.14655 185.578 1.44779 186.125 1.80067C186.645 2.12774 187.149 2.48062 187.631 2.85932L185.354 7.81689C184.782 6.50004 184.003 5.28216 183.056 4.202C182.213 3.35852 181.068 2.89375 179.876 2.91096C178.594 2.84641 177.359 3.38864 176.537 4.37413C175.607 5.56189 175.142 7.04657 175.233 8.54848C175.306 9.89976 175.801 11.1908 176.644 12.2451C177.914 13.9192 179.398 15.4211 181.051 16.7164C182.389 17.8138 183.646 19.0015 184.812 20.2754C185.759 21.291 186.585 22.4056 187.282 23.6019C187.885 24.6391 188.345 25.7494 188.659 26.907C188.939 28.0173 189.073 29.162 189.051 30.3067L189.055 30.3196Z" fill="#30422E"/>
<path d="M196.474 22.3926C196.474 27.8407 197.012 31.787 198.084 34.2313C198.832 36.4605 200.937 37.9495 203.286 37.9108C204.814 37.9194 206.294 37.3643 207.439 36.353C208.846 35.0017 209.849 33.2846 210.331 31.3954L211.549 37.6698C210.378 38.694 209.036 39.5117 207.586 40.0754C206.157 40.5875 204.651 40.8458 203.136 40.8285C195.024 40.8285 190.974 34.6875 190.979 22.4012C190.979 16.3764 191.998 11.7846 194.043 8.62585C195.949 5.54888 199.37 3.74574 202.985 3.90927C204.47 3.85332 205.95 4.09001 207.34 4.61073C208.459 5.11423 209.501 5.77696 210.426 6.58171L207.796 11.2983C206.927 8.3203 205.283 6.827 202.89 6.827C198.609 6.83991 196.47 12.0342 196.47 22.4055L196.474 22.3926Z" fill="#30422E"/>
<path d="M231.689 12.2321C231.732 13.8976 231.31 15.5415 230.471 16.9788C229.606 18.3473 228.375 19.449 226.921 20.1591C228.022 24.0795 228.986 27.3372 229.812 29.9279C230.471 32.0624 231.233 34.1625 232.102 36.2238C232.61 37.4891 233.272 38.6897 234.073 39.7957C234.581 40.4929 235.243 41.0566 236.014 41.4482C235.334 41.5429 234.658 41.6161 233.978 41.6505C233.298 41.6849 232.614 41.6161 231.956 41.4482C231.267 41.2804 230.613 41.0007 230.015 40.622C229.335 40.1916 228.741 39.6322 228.268 38.9781C226.869 36.9081 225.836 34.6144 225.204 32.1958C224.343 29.248 223.28 25.7191 222.023 21.5964C221.739 21.5964 221.442 21.661 221.154 21.6696C220.866 21.6782 220.551 21.6696 220.22 21.6696H219.785V36.6843C219.785 37.4546 219.919 38.2163 220.177 38.9436C220.371 39.5934 220.737 40.1744 221.236 40.6306H213.063C213.563 40.1744 213.928 39.5934 214.122 38.9436C214.372 38.2163 214.501 37.4546 214.505 36.6843V8.0707C214.501 7.30469 214.372 6.53868 214.122 5.81139C213.928 5.16588 213.563 4.58922 213.063 4.13735H221.541C223.263 4.08571 224.98 4.33101 226.619 4.86894C227.764 5.26486 228.805 5.90607 229.67 6.75385C230.398 7.47683 230.94 8.37195 231.25 9.34883C231.534 10.2784 231.68 11.2466 231.684 12.2192L231.689 12.2321ZM219.79 19.2381C220.883 19.2769 221.967 19.0703 222.97 18.6357C223.753 18.2742 224.446 17.7449 224.993 17.0778C225.483 16.4495 225.845 15.7308 226.051 14.9562C226.249 14.1773 226.353 13.3769 226.357 12.5721C226.443 10.9971 225.944 9.44351 224.945 8.21703C223.947 7.14116 222.522 6.56019 221.055 6.63766H219.781V19.2381H219.79Z" fill="#30422E"/>
<path d="M238.398 8.09653C238.393 7.33052 238.264 6.56451 238.015 5.83722C237.821 5.19171 237.455 4.61504 236.956 4.16318H245.128C244.625 4.61074 244.259 5.19171 244.07 5.83722C243.811 6.5602 243.682 7.32622 243.678 8.09653V36.7101C243.678 37.4805 243.811 38.2422 244.07 38.9695C244.263 39.6193 244.629 40.2002 245.128 40.6564H236.956C237.455 40.2002 237.821 39.6193 238.015 38.9695C238.264 38.2422 238.393 37.4805 238.398 36.7101V8.09653Z" fill="#30422E"/>
<path d="M265.769 12.2322C265.876 14.8702 264.766 17.4092 262.76 19.122C260.746 20.8175 257.919 21.6653 254.283 21.6653H253.848V36.693C253.848 37.4633 253.981 38.225 254.24 38.9523C254.433 39.6021 254.799 40.1831 255.298 40.6392H247.126C247.625 40.1831 247.991 39.6021 248.185 38.9523C248.434 38.225 248.563 37.4633 248.568 36.693V8.07934C248.563 7.31333 248.434 6.54731 248.185 5.82003C247.991 5.17451 247.625 4.59785 247.126 4.14599H255.604C257.325 4.09435 259.042 4.33964 260.682 4.87758C261.835 5.26919 262.885 5.91471 263.754 6.76249C264.495 7.49407 265.046 8.3978 265.355 9.39189C265.631 10.3128 265.769 11.2682 265.769 12.2322ZM253.857 19.2382C254.95 19.2769 256.034 19.0703 257.037 18.6357C257.799 18.2656 258.466 17.7363 258.999 17.0778C259.49 16.4495 259.851 15.7309 260.058 14.9562C260.264 14.1773 260.372 13.3769 260.376 12.5721C260.484 10.9842 259.993 9.41771 258.999 8.17402C257.996 7.09816 256.568 6.52149 255.1 6.59465H253.839L253.861 19.2382H253.857Z" fill="#30422E"/>
<path d="M273.304 40.6736C273.803 40.2174 274.169 39.6365 274.362 38.9867C274.612 38.2594 274.741 37.4977 274.745 36.7274V7.56289H270.653C269.878 7.56289 269.112 7.6963 268.385 7.95451C267.739 8.14817 267.158 8.51395 266.711 9.01315L267.589 4.2019H287.131L288 9.01315C287.553 8.50965 286.972 8.14386 286.326 7.95451C285.603 7.6963 284.837 7.5672 284.067 7.56289H280.03V36.6843C280.03 37.4546 280.164 38.2163 280.422 38.9436C280.615 39.5934 280.981 40.1744 281.48 40.6306L273.3 40.6736H273.304Z" fill="#30422E"/>
<g clip-path="url(#clip0_1243_440)">
<path d="M78.8158 40.3639L55.0038 4.79571V2.2241C55.0038 0.886165 53.8485 -0.139005 52.5381 1.40257e-06H46.6066C45.8652 1.40257e-06 45.1238 0.0347529 44.3823 0.139007L23.0877 3.90955C21.967 4.03118 21.1221 4.98684 21.1221 6.13364V9.29603L44.4341 6.34215C44.8134 6.42903 45.0375 6.89818 44.7962 7.26307L22.5532 40.4855C22.5187 40.5203 22.4842 40.5724 22.467 40.6245L22.3118 40.8504H22.6567C22.6911 40.8504 22.7084 40.8504 22.7429 40.8504H23.105L26.4155 40.8852H26.5535L47.2618 40.8678C47.2618 40.8678 48.2619 40.1206 48.2792 39.2692C48.2792 39.1302 48.2619 38.9912 48.2274 38.8348L53.8485 34.9426V34.3171C53.1588 32.9097 50.7966 32.5795 50.7966 32.5795C50.7966 32.5795 50.2621 31.6239 48.1757 31.3632L44.3478 34.821C44.072 34.7341 44.0547 34.8905 43.6754 34.9774C43.2271 35.0816 43.1409 35.1685 42.8477 35.1685C42.5546 35.1685 42.5719 34.9253 42.2787 34.9253C41.9856 34.9253 42.0373 34.6473 41.9166 34.4909C41.7959 34.3171 41.4856 34.5082 41.2269 34.1086C40.9166 33.6221 40.6234 33.3614 40.3476 33.1182C40.1234 32.9097 39.8993 32.7012 39.6406 32.51C39.4509 32.371 39.382 32.2668 39.5027 32.0583C39.6406 31.7976 39.4165 31.6412 39.3303 31.5717C39.2613 31.5196 39.244 31.3632 39.4682 31.2937C39.6923 31.2242 39.4682 27.5753 39.4682 27.0193C39.4682 26.4633 39.8993 26.0636 39.951 25.5597C40.0027 25.0558 40.382 24.6562 40.6234 24.048C40.8821 23.4399 40.6407 22.1541 40.6407 22.1541C40.6407 22.1541 41.089 20.1211 41.5373 21.5807C41.9856 23.0402 42.6753 23.3009 43.0202 23.3009C43.0374 23.3009 43.0374 23.2835 43.0547 23.2835C43.2271 23.3183 43.434 23.2661 43.5547 23.1098C43.7271 22.8839 43.7961 22.5711 44.0892 22.4495C44.1409 22.4321 44.1582 22.2931 44.1927 22.1715C44.4341 22.5885 44.7099 22.3105 44.9686 22.241C45.3996 22.8491 45.641 22.8317 46.0031 22.1715C46.0893 22.0151 46.1238 21.8413 46.21 21.6849C46.2963 21.5459 46.3997 21.4243 46.5721 21.2332C46.7101 21.7544 46.9687 22.0846 47.3308 22.2931C47.417 22.3452 47.5205 22.3973 47.6239 22.4147C47.9688 22.4842 48.0722 22.38 48.0205 22.0325C47.986 21.8413 47.9343 21.6676 48.1585 21.5633C48.2102 21.5459 48.2274 21.4764 48.2447 21.4243C48.5895 20.486 48.7964 19.4956 48.6413 18.5226C48.4688 17.4974 48.124 16.5243 47.3653 15.7598C47.0032 15.3949 46.6066 15.1343 46.0893 15.0648C45.9342 15.0474 45.8135 14.9431 45.6583 14.9084C45.5721 14.891 45.4686 14.891 45.3824 14.8736C45.3996 14.891 45.4169 14.9084 45.4341 14.9431C44.8651 14.8041 44.3478 14.9258 43.5202 15.0822C42.865 15.2038 42.2615 15.5687 41.8304 16.0726L47.5377 6.91555H47.7791C47.5722 7.59321 46.7446 10.1822 45.0548 13.8659C45.2617 13.918 45.4686 13.9875 45.641 14.0744C46.4514 11.8329 47.1929 9.43504 47.7791 6.91555H48.9171C48.6757 8.23611 48.1412 10.9467 47.2791 14.8389C47.7964 14.9258 48.2274 15.1517 48.555 15.4644C48.9689 12.9276 49.2447 10.1301 49.1068 6.93293H50.3828C50.5035 9.20915 50.6931 18.1577 47.8481 30.4423C48.1585 30.3207 48.5033 30.2512 48.8999 30.2512C49.4517 30.2512 49.9172 30.3902 50.2965 30.6335C51.1242 26.3069 51.5725 20.2601 50.4 6.9503H53.4692L60.5731 17.3758L63.3664 21.5633L76.2294 40.7809L78.5744 40.7983C78.8158 40.8156 78.9537 40.555 78.8158 40.3639ZM47.2791 2.65849C47.2791 1.92871 47.8653 1.32056 48.6068 1.32056H52.2105C52.9347 1.32056 53.5382 1.91133 53.5382 2.65849V4.81309H47.2963V2.65849H47.2791ZM32.2608 34.8905C32.6056 34.4561 34.2092 31.2069 34.2092 31.2069L34.2954 33.1008C34.3127 33.3614 34.4334 33.5873 34.6403 33.7263L35.9162 34.6299C34.4678 34.0044 32.2608 34.8905 32.2608 34.8905Z" fill="#30422E"/>
<path d="M41.2443 7.57583L30.2952 9.10489C28.6227 9.27865 26.9502 9.33078 25.2776 9.2439L21.1222 9.27865L0 40.8156H20.6394L41.7961 8.51412C42.0892 8.07973 41.7443 7.5237 41.2443 7.57583Z" fill="#30422E"/>
<path d="M58.434 20.0754C54.52 12.4127 52.2627 7.00244 52.2627 7.00244C53.1248 12.6322 55.1077 17.2715 56.6596 21.0421C56.9527 20.6077 57.8823 20.2839 58.434 20.0754Z" fill="#30422E"/>
<path d="M67.884 35.9852C67.6426 34.8905 67.2632 34.8384 66.4873 33.0487C65.7114 31.259 64.1078 30.1296 63.5044 29.6604C63.2802 29.4867 63.0905 29.2782 62.9181 29.0523C62.7974 28.8959 62.6939 28.6526 62.5043 28.5484C62.2974 28.4267 62.0042 28.4962 61.7801 28.4962C61.7801 28.4962 61.4008 28.2182 61.7973 27.5232C62.1939 26.8282 63.0043 26.359 62.4698 24.7605C61.9525 23.1445 60.918 22.6406 59.8317 22.3279C58.7281 22.0325 58.4178 22.0151 57.0901 23.0055C55.7624 23.9785 55.0555 24.3261 55.2796 25.4902C55.5038 26.6544 56.4866 27.1583 56.4521 27.5753C56.4004 27.9923 56.3142 28.4094 56.159 28.7569C56.0038 29.1044 56.7108 29.1044 56.8142 29.1739C56.9177 29.2434 56.7797 29.4172 56.8832 29.5388C56.9866 29.6604 57.1936 29.5735 57.2453 29.6778C57.297 29.782 57.4522 30.0948 57.5729 30.1469C57.7108 30.1991 58.5557 30.2338 59.1937 29.8863C59.6765 29.6257 59.8489 30.2512 59.6765 30.5466C59.5041 30.842 59.142 31.5022 59.1075 32.232C59.0558 32.9618 59.1937 33.1356 59.1937 33.3441C59.1937 33.5526 59.3834 33.8827 59.2282 34.2302C59.0558 34.5778 58.9351 34.6125 58.8833 35.0817C58.8316 35.5508 58.4695 35.2033 58.3488 35.6898C58.2281 36.1763 58.004 36.2458 57.8488 36.2806C57.6936 36.3153 57.2625 36.5065 57.1936 36.715C57.1246 36.9235 57.1246 37.4969 56.6246 37.2015C56.1245 36.8887 55.1934 36.7845 54.6072 37.3753C54.0382 37.966 54.1416 39.4256 54.8313 40.0337C55.521 40.6419 56.0038 40.8504 56.6418 40.8678C57.2798 40.8852 66.4873 40.8157 66.4873 40.8157C66.4873 40.8157 66.5563 40.833 66.8322 40.4681C67.108 40.1032 67.4701 39.7036 67.4357 38.9738C67.4012 38.244 67.0218 38.105 67.246 37.7054C67.4529 37.3058 68.1254 37.0799 67.884 35.9852Z" fill="#30422E"/>
</g>
<defs>
<clipPath id="clip0_1243_440">
<rect width="78.8676" height="40.8678" fill="white"/>
</clipPath>
</defs>
</svg>
