<svg width="164" height="24" viewBox="0 0 164 24" fill="none" xmlns="http://www.w3.org/2000/svg">
<path d="M62.3328 23.0993H52.5273C52.8109 22.8426 53.021 22.5103 53.1286 22.1412C53.2752 21.7306 53.351 21.2956 53.351 20.8581V2.38618C53.351 1.9487 53.2752 1.51611 53.1286 1.10307C53.021 0.736465 52.8133 0.406522 52.5273 0.152344H57.1685C56.885 0.408966 56.6773 0.736465 56.5673 1.10307C56.4256 1.51611 56.3522 1.9487 56.3498 2.38618V21.1392H60.5633C61.0008 21.1343 61.4334 21.0585 61.8464 20.9167C62.2106 20.8043 62.5405 20.5966 62.7971 20.3155L62.3328 23.0968V23.0993Z" fill="#F3ECDA"/>
<path d="M64.7328 4.5981C64.7328 4.16062 64.657 3.72803 64.5104 3.31499C64.4029 2.94838 64.1951 2.61844 63.9092 2.36426H68.5504C68.2669 2.62088 68.0591 2.94838 67.9491 3.31499C67.8074 3.72803 67.7341 4.16062 67.7316 4.5981V20.8484C67.7316 21.2859 67.8074 21.7185 67.9491 22.1315C68.0616 22.4981 68.2693 22.8281 68.5504 23.0896H63.9092C64.1927 22.8329 64.4029 22.5006 64.5104 22.1315C64.657 21.7209 64.7328 21.2859 64.7328 20.8484V4.5981Z" fill="#F3ECDA"/>
<path d="M70.474 4.5981C70.474 4.16062 70.3983 3.72803 70.2516 3.31499C70.1441 2.94838 69.9363 2.61844 69.6504 2.36426H79.4558L79.9495 5.09668C79.6953 4.81073 79.3654 4.60298 78.9988 4.49545C78.5882 4.3488 78.1531 4.27549 77.7157 4.27304H73.5022V9.2564H76.1515C76.5914 9.2564 77.0264 9.18064 77.4395 9.03399C77.8061 8.92401 78.1336 8.71627 78.3902 8.43276V11.9668C78.1336 11.6833 77.8061 11.4756 77.4395 11.3656C77.0264 11.219 76.5914 11.1432 76.1515 11.1432H73.5022V20.7726C73.5022 21.2101 73.5779 21.6427 73.7246 22.0557C73.8346 22.4248 74.0423 22.7547 74.3258 23.0138H69.6846C69.9681 22.7572 70.1783 22.4248 70.2858 22.0557C70.4325 21.6451 70.5082 21.2101 70.5082 20.7726L70.4716 4.60054L70.474 4.5981Z" fill="#F3ECDA"/>
<path d="M81.6029 4.5981C81.6029 4.16062 81.5272 3.72803 81.3805 3.31499C81.273 2.94838 81.0652 2.61844 80.7793 2.36426H90.5847L91.0784 5.09668C90.8242 4.81073 90.4943 4.60298 90.1277 4.49544C89.7171 4.3488 89.282 4.27549 88.8446 4.27304H84.6311V9.2564H87.2804C87.7203 9.2564 88.1554 9.18064 88.5684 9.03399C88.935 8.92401 89.2625 8.71627 89.5191 8.43276V11.9668C89.2625 11.6833 88.935 11.4756 88.5684 11.3656C88.1554 11.219 87.7203 11.1432 87.2804 11.1432H84.6311V21.1466H88.8446C89.282 21.1417 89.7146 21.0659 90.1277 20.9242C90.4918 20.8117 90.8218 20.604 91.0784 20.3229L90.6092 23.1042H80.8037C81.0872 22.8476 81.2974 22.5152 81.405 22.1462C81.5516 21.7356 81.6274 21.3005 81.6274 20.8631L81.6029 4.60054V4.5981Z" fill="#F3ECDA"/>
<path d="M107.368 17.2192C107.38 18.0648 107.224 18.9055 106.911 19.6925C106.625 20.394 106.2 21.0343 105.665 21.5695C105.132 22.0999 104.492 22.5105 103.788 22.7744C103.033 23.0579 102.233 23.1973 101.429 23.1899C100.562 23.1997 99.6989 23.0457 98.8899 22.7329C97.9758 22.3467 97.1302 21.8213 96.3799 21.1736L97.685 17.9426C98.3473 20.35 99.5693 21.5549 101.351 21.5549C101.637 21.5427 101.92 21.4962 102.194 21.4156C102.558 21.3105 102.896 21.1321 103.186 20.8925C103.536 20.5919 103.812 20.218 103.998 19.7976C104.242 19.2086 104.355 18.5756 104.328 17.9377C104.328 16.8184 104.01 15.7185 103.414 14.7727C102.612 13.58 101.615 12.5291 100.464 11.6664C99.2687 10.767 98.2398 9.6647 97.4235 8.41092C96.7929 7.40154 96.4581 6.23574 96.4556 5.0455C96.3726 3.63286 96.9249 2.25443 97.9612 1.28904C99.1172 0.355424 100.586 -0.0991634 102.065 0.0181497C102.976 0.00592955 103.881 0.172124 104.724 0.511843C105.066 0.651152 105.393 0.822233 105.704 1.02264C106 1.20839 106.286 1.4088 106.559 1.62387L105.266 4.43938C104.941 3.69151 104.499 2.99986 103.961 2.38641C103.482 1.90738 102.832 1.64342 102.155 1.6532C101.427 1.61654 100.725 1.92449 100.259 2.48417C99.7306 3.15872 99.4667 4.0019 99.518 4.85487C99.5596 5.62229 99.8406 6.3555 100.32 6.95428C101.041 7.90501 101.884 8.75797 102.822 9.49362C103.582 10.1168 104.296 10.7914 104.958 11.5148C105.496 12.0916 105.965 12.7246 106.361 13.4041C106.703 13.9931 106.965 14.6236 107.143 15.2811C107.302 15.9116 107.378 16.5617 107.366 17.2118L107.368 17.2192Z" fill="#F3ECDA"/>
<path d="M111.582 12.7177C111.582 15.8119 111.887 18.053 112.496 19.4412C112.921 20.7072 114.116 21.5529 115.451 21.5309C116.318 21.5358 117.159 21.2205 117.809 20.6461C118.609 19.8787 119.178 18.9036 119.452 17.8306L120.143 21.394C119.479 21.9757 118.716 22.4401 117.892 22.7602C117.081 23.0511 116.226 23.1977 115.365 23.1879C110.758 23.1879 108.458 19.7003 108.461 12.7226C108.461 9.301 109.04 6.69323 110.201 4.89931C111.284 3.15184 113.227 2.12779 115.28 2.22066C116.123 2.18889 116.964 2.32331 117.753 2.61904C118.389 2.90499 118.98 3.28137 119.505 3.7384L118.012 6.41705C117.518 4.72579 116.585 3.87771 115.226 3.87771C112.794 3.88504 111.58 6.83498 111.58 12.7251L111.582 12.7177Z" fill="#F3ECDA"/>
<path d="M131.582 6.94673C131.606 7.89257 131.367 8.82619 130.89 9.64249C130.399 10.4197 129.7 11.0454 128.874 11.4486C129.499 13.6751 130.047 15.5252 130.516 16.9966C130.89 18.2088 131.323 19.4015 131.816 20.5722C132.105 21.2907 132.481 21.9726 132.936 22.6007C133.224 22.9966 133.6 23.3168 134.038 23.5392C133.652 23.593 133.268 23.6345 132.882 23.6541C132.496 23.6736 132.107 23.6345 131.733 23.5392C131.342 23.4439 130.971 23.285 130.631 23.0699C130.245 22.8255 129.907 22.5078 129.639 22.1363C128.844 20.9608 128.258 19.6581 127.898 18.2846C127.41 16.6104 126.806 14.6063 126.092 12.2649C125.931 12.2649 125.762 12.3016 125.599 12.3065C125.435 12.3114 125.257 12.3065 125.068 12.3065H124.821V20.8337C124.821 21.2711 124.897 21.7037 125.044 22.1168C125.154 22.4858 125.362 22.8158 125.645 23.0748H121.004C121.287 22.8158 121.495 22.4858 121.605 22.1168C121.747 21.7037 121.82 21.2711 121.823 20.8337V4.58337C121.82 4.14833 121.747 3.71329 121.605 3.30025C121.495 2.93365 121.287 2.60615 121.004 2.34953H125.819C126.796 2.3202 127.771 2.45951 128.703 2.76502C129.353 2.98987 129.944 3.35402 130.435 3.8355C130.848 4.24609 131.156 4.75445 131.332 5.30924C131.494 5.83715 131.577 6.38705 131.579 6.9394L131.582 6.94673ZM124.824 10.9256C125.445 10.9476 126.061 10.8303 126.63 10.5834C127.075 10.3781 127.468 10.0775 127.779 9.69871C128.057 9.34188 128.263 8.93372 128.38 8.4938C128.492 8.05143 128.551 7.59685 128.553 7.13981C128.602 6.2453 128.319 5.36301 127.752 4.66647C127.185 4.05546 126.376 3.72551 125.542 3.76951H124.819V10.9256H124.824Z" fill="#F3ECDA"/>
<path d="M135.391 4.5981C135.389 4.16306 135.315 3.72803 135.173 3.31499C135.064 2.94838 134.856 2.62088 134.572 2.36426H139.213C138.928 2.61844 138.72 2.94838 138.612 3.31499C138.466 3.72558 138.392 4.16062 138.39 4.5981V20.8484C138.39 21.2859 138.466 21.7185 138.612 22.1315C138.722 22.5006 138.93 22.8305 139.213 23.0896H134.572C134.856 22.8305 135.064 22.5006 135.173 22.1315C135.315 21.7185 135.389 21.2859 135.391 20.8484V4.5981Z" fill="#F3ECDA"/>
<path d="M150.936 6.94673C150.997 8.44491 150.367 9.88689 149.228 10.8596C148.084 11.8226 146.478 12.304 144.413 12.304H144.166V20.8385C144.166 21.276 144.242 21.7086 144.389 22.1217C144.499 22.4907 144.706 22.8207 144.99 23.0797H140.349C140.632 22.8207 140.84 22.4907 140.95 22.1217C141.092 21.7086 141.165 21.276 141.167 20.8385V4.58825C141.165 4.15321 141.092 3.71818 140.95 3.30514C140.84 2.93853 140.632 2.61104 140.349 2.35441H145.163C146.141 2.32508 147.116 2.46439 148.047 2.7699C148.702 2.9923 149.299 3.35891 149.792 3.84038C150.213 4.25586 150.526 4.76911 150.702 5.33368C150.858 5.8567 150.936 6.39927 150.936 6.94673ZM144.171 10.9256C144.792 10.9476 145.408 10.8303 145.977 10.5834C146.41 10.3732 146.789 10.0726 147.092 9.6987C147.37 9.34187 147.576 8.93372 147.693 8.49379C147.81 8.05143 147.871 7.59684 147.874 7.13981C147.935 6.23796 147.656 5.34834 147.092 4.64202C146.522 4.03101 145.711 3.70351 144.877 3.74506H144.161L144.174 10.9256H144.171Z" fill="#F3ECDA"/>
<path d="M155.215 23.0998C155.498 22.8407 155.706 22.5108 155.816 22.1417C155.958 21.7287 156.031 21.2961 156.034 20.8586V4.2955H153.709C153.269 4.2955 152.834 4.37126 152.421 4.51791C152.055 4.62789 151.725 4.83563 151.471 5.11913L151.969 2.38672H163.068L163.561 5.11913C163.307 4.83318 162.977 4.62544 162.611 4.51791C162.2 4.37126 161.765 4.29794 161.327 4.2955H159.035V20.8342C159.035 21.2717 159.111 21.7043 159.257 22.1173C159.367 22.4864 159.575 22.8163 159.859 23.0754L155.212 23.0998H155.215Z" fill="#F3ECDA"/>
<g clip-path="url(#clip0_1638_561)">
<path d="M44.7616 22.9239L31.2383 2.72393V1.26345C31.2383 0.503612 30.5822 -0.0786044 29.8379 0.000340143H26.4693C26.0483 0.000340143 25.6272 0.0200763 25.2061 0.0792847L13.1124 2.22066C12.4759 2.28973 11.9961 2.83248 11.9961 3.48377V5.27976L25.2355 3.60219C25.4509 3.65153 25.5782 3.91796 25.4411 4.12519L12.8089 22.9929C12.7893 23.0127 12.7697 23.0423 12.7599 23.0719L12.6718 23.2002H12.8676C12.8872 23.2002 12.897 23.2002 12.9166 23.2002H13.1222L15.0024 23.2199H15.0807L26.8414 23.21C26.8414 23.21 27.4094 22.7857 27.4192 22.3022C27.4192 22.2232 27.4094 22.1443 27.3898 22.0555L30.5822 19.845V19.4898C30.1905 18.6905 28.8489 18.503 28.8489 18.503C28.8489 18.503 28.5453 17.9602 27.3604 17.8122L25.1865 19.776C25.0298 19.7266 25.0201 19.8154 24.8046 19.8648C24.55 19.924 24.5011 19.9733 24.3346 19.9733C24.1681 19.9733 24.1779 19.8352 24.0114 19.8352C23.845 19.8352 23.8743 19.6773 23.8058 19.5885C23.7372 19.4898 23.561 19.5983 23.4141 19.3714C23.2378 19.0951 23.0714 18.947 22.9147 18.8089C22.7874 18.6905 22.6601 18.5721 22.5132 18.4635C22.4055 18.3846 22.3663 18.3253 22.4348 18.2069C22.5132 18.0589 22.3859 17.9701 22.3369 17.9306C22.2977 17.901 22.288 17.8122 22.4153 17.7727C22.5426 17.7333 22.4153 15.661 22.4153 15.3452C22.4153 15.0294 22.6601 14.8024 22.6894 14.5163C22.7188 14.2301 22.9343 14.0031 23.0714 13.6578C23.2182 13.3124 23.0811 12.5821 23.0811 12.5821C23.0811 12.5821 23.3357 11.4276 23.5904 12.2565C23.845 13.0854 24.2367 13.2334 24.4325 13.2334C24.4423 13.2334 24.4423 13.2236 24.4521 13.2236C24.55 13.2433 24.6675 13.2137 24.7361 13.1249C24.834 12.9966 24.8732 12.819 25.0396 12.7499C25.069 12.74 25.0788 12.6611 25.0984 12.592C25.2355 12.8288 25.3922 12.6709 25.5391 12.6315C25.7839 12.9769 25.921 12.967 26.1266 12.592C26.1756 12.5032 26.1951 12.4045 26.2441 12.3157C26.2931 12.2367 26.3518 12.1677 26.4497 12.0591C26.5281 12.3552 26.675 12.5427 26.8806 12.6611C26.9296 12.6907 26.9883 12.7203 27.0471 12.7302C27.2429 12.7696 27.3017 12.7104 27.2723 12.5131C27.2527 12.4045 27.2234 12.3058 27.3507 12.2466C27.38 12.2367 27.3898 12.1973 27.3996 12.1677C27.5955 11.6348 27.713 11.0723 27.6248 10.5197C27.5269 9.93749 27.3311 9.38488 26.9002 8.95068C26.6946 8.74345 26.4693 8.59543 26.1756 8.55596C26.0874 8.54609 26.0189 8.48688 25.9307 8.46714C25.8818 8.45728 25.823 8.45728 25.7741 8.44741C25.7839 8.45728 25.7937 8.46715 25.8034 8.48688C25.4803 8.40794 25.1865 8.47701 24.7165 8.56583C24.3444 8.6349 24.0016 8.84213 23.7568 9.12831L26.9981 3.92783H27.1352C27.0177 4.31269 26.5477 5.78303 25.588 7.87506C25.7055 7.90467 25.823 7.94414 25.921 7.99348C26.3812 6.7205 26.8023 5.3587 27.1352 3.92783H27.7815C27.6444 4.67781 27.3409 6.21723 26.8512 8.42767C27.145 8.47701 27.3898 8.6053 27.5759 8.78292C27.8109 7.34219 27.9676 5.75343 27.8892 3.9377H28.6139C28.6824 5.23042 28.7901 10.3125 27.1744 17.2892C27.3507 17.2201 27.5465 17.1807 27.7717 17.1807C28.0851 17.1807 28.3495 17.2596 28.5649 17.3978C29.035 14.9406 29.2896 11.5065 28.6237 3.94757H30.3667L34.4012 9.86841L35.9876 12.2466L43.2928 23.1607L44.6245 23.1706C44.7616 23.1804 44.84 23.0324 44.7616 22.9239ZM26.8512 1.51016C26.8512 1.0957 27.1842 0.750314 27.6053 0.750314H29.6519C30.0632 0.750314 30.4059 1.08583 30.4059 1.51016V2.7338H26.861V1.51016H26.8512ZM18.322 19.8154C18.5179 19.5687 19.4286 17.7234 19.4286 17.7234L19.4775 18.799C19.4873 18.947 19.5559 19.0753 19.6734 19.1543L20.398 19.6674C19.5754 19.3122 18.322 19.8154 18.322 19.8154Z" fill="#F3ECDA"/>
<path d="M23.4235 4.30272L17.2053 5.17111C16.2555 5.26979 15.3056 5.29939 14.3557 5.25005L11.9957 5.26979L0 23.1803H11.7216L23.7369 4.83559C23.9034 4.58889 23.7075 4.27311 23.4235 4.30272Z" fill="#F3ECDA"/>
<path d="M33.1855 11.402C30.9626 7.05016 29.6807 3.97754 29.6807 3.97754C30.1703 7.17479 31.2964 9.80957 32.1777 11.9509C32.3442 11.7042 32.8721 11.5204 33.1855 11.402Z" fill="#F3ECDA"/>
<path d="M38.5528 20.4368C38.4157 19.8151 38.2003 19.7855 37.7597 18.7691C37.319 17.7527 36.4083 17.1113 36.0656 16.8449C35.9383 16.7462 35.8305 16.6278 35.7326 16.4995C35.6641 16.4107 35.6053 16.2725 35.4976 16.2133C35.3801 16.1442 35.2136 16.1837 35.0863 16.1837C35.0863 16.1837 34.8709 16.0258 35.0961 15.6311C35.3213 15.2364 35.7816 14.9699 35.478 14.0621C35.1842 13.1443 34.5967 12.8582 33.9798 12.6805C33.3531 12.5128 33.1768 12.5029 32.4228 13.0654C31.6687 13.618 31.2673 13.8154 31.3946 14.4765C31.5219 15.1377 32.08 15.4239 32.0604 15.6607C32.0311 15.8975 31.9821 16.1344 31.894 16.3317C31.8058 16.5291 32.2073 16.5291 32.2661 16.5686C32.3248 16.608 32.2465 16.7067 32.3053 16.7758C32.364 16.8449 32.4815 16.7955 32.5109 16.8547C32.5403 16.9139 32.6284 17.0916 32.697 17.1212C32.7753 17.1508 33.2551 17.1705 33.6174 16.9731C33.8916 16.8251 33.9896 17.1804 33.8916 17.3481C33.7937 17.5159 33.5881 17.8909 33.5685 18.3053C33.5391 18.7198 33.6174 18.8185 33.6174 18.9369C33.6174 19.0553 33.7252 19.2428 33.637 19.4402C33.5391 19.6375 33.4706 19.6573 33.4412 19.9237C33.4118 20.1901 33.2062 19.9928 33.1376 20.2691C33.0691 20.5454 32.9418 20.5849 32.8536 20.6046C32.7655 20.6243 32.5207 20.7329 32.4815 20.8513C32.4424 20.9697 32.4424 21.2954 32.1584 21.1276C31.8744 20.95 31.3456 20.8908 31.0127 21.2263C30.6895 21.5618 30.7483 22.3907 31.14 22.7361C31.5317 23.0815 31.8058 23.1999 32.1682 23.2098C32.5305 23.2196 37.7597 23.1802 37.7597 23.1802C37.7597 23.1802 37.7988 23.19 37.9555 22.9828C38.1122 22.7756 38.3178 22.5486 38.2982 22.1341C38.2787 21.7197 38.0632 21.6407 38.1905 21.4138C38.308 21.1868 38.6899 21.0585 38.5528 20.4368Z" fill="#F3ECDA"/>
</g>
<defs>
<clipPath id="clip0_1638_561">
<rect width="44.7907" height="23.2097" fill="white"/>
</clipPath>
</defs>
</svg>
