<svg width="18" height="12" viewBox="0 0 18 12" fill="none" xmlns="http://www.w3.org/2000/svg">
<path d="M12.6285 0.381355L12.6285 0.381363L17.6185 5.36647C17.6185 5.36647 17.6185 5.36647 17.6185 5.36647C17.9605 5.70823 17.9605 6.26227 17.6185 6.60402L17.6184 6.60414L12.613 11.6186L12.6285 0.381355ZM12.6285 0.381355C12.2865 0.0395482 11.7318 0.0395483 11.3897 0.381355C11.0477 0.723104 11.0477 1.27714 11.3897 1.6189C11.3897 1.6189 11.3897 1.6189 11.3897 1.61891L14.6709 4.89668L14.8846 5.11011H14.5826L0.945326 5.11011C0.498816 5.11011 0.125 5.49519 0.125 5.98524C0.125 6.4753 0.498816 6.86037 0.945326 6.86037L14.5826 6.86037H14.8837L14.6711 7.07362L11.3744 10.3809L11.3742 10.3811M12.6285 0.381355L11.3742 10.3811M11.3742 10.3811C11.0322 10.7228 11.0322 11.2769 11.3742 11.6186C11.7163 11.9604 12.2708 11.9605 12.6129 11.6188L11.3742 10.3811Z" fill="#E1683B" stroke="#F3ECDA" stroke-width="0.25" stroke-linecap="round"/>
</svg>
