<svg width="23" height="18" viewBox="0 0 23 18" fill="none" xmlns="http://www.w3.org/2000/svg">
<path fill-rule="evenodd" clip-rule="evenodd" d="M7.1 0C8.31503 0 9.3 1.00737 9.3 2.25001C9.3 3.49266 8.31503 4.50003 7.1 4.50003C5.88497 4.50003 4.9 3.49266 4.9 2.25001C4.9 1.00737 5.88497 0 7.1 0Z" fill="#F3ECDA"/>
<path fill-rule="evenodd" clip-rule="evenodd" d="M15.9 0C17.115 0 18.1 1.00737 18.1 2.25001C18.1 3.49266 17.115 4.50003 15.9 4.50003C14.685 4.50003 13.7 3.49266 13.7 2.25001C13.7 1.00737 14.685 0 15.9 0Z" fill="#F3ECDA"/>
<path d="M0.5 10.1251C0.5 10.2844 0.532401 10.4361 0.590833 10.5734C0.596946 10.5891 0.604387 10.6079 0.613185 10.6298C0.637895 10.691 0.673354 10.776 0.720212 10.8812C0.813847 11.0915 0.953488 11.384 1.14446 11.7312C1.52535 12.4237 2.11664 13.3455 2.96359 14.2694C4.66954 16.1305 7.41914 18 11.5005 18C15.5818 18 18.3314 16.1305 20.0373 14.2694C20.8843 13.3455 21.4756 12.4237 21.8565 11.7312C22.0474 11.384 22.1871 11.0915 22.2807 10.8812C22.3276 10.776 22.363 10.691 22.3877 10.6298C22.4001 10.5991 22.4098 10.5744 22.4169 10.5559L22.4256 10.5331L22.4285 10.5253L22.43 10.5211C22.4753 10.3979 22.5 10.2644 22.5 10.1251C22.5 9.50374 22.0075 9.00006 21.4 9.00006C20.921 9.00006 20.5135 9.3132 20.3625 9.75026L20.3601 9.75632L20.354 9.77176C20.3388 9.80937 20.3138 9.86944 20.2785 9.94877C20.2078 10.1076 20.0961 10.3425 19.939 10.6281C19.6238 11.2012 19.1323 11.967 18.4323 12.7305C17.0445 14.2445 14.8441 15.75 11.5005 15.75C8.15678 15.75 5.95638 14.2445 4.56858 12.7305C3.86865 11.967 3.37713 11.2012 3.06193 10.6281C2.90485 10.3425 2.79313 10.1076 2.72241 9.94877C2.68709 9.86944 2.66212 9.80937 2.64695 9.77176C2.63937 9.75296 2.63425 9.7398 2.63151 9.73269L2.63008 9.729C2.47343 9.30305 2.07124 9.00006 1.6 9.00006C0.992487 9.00006 0.5 9.50374 0.5 10.1251Z" fill="#F3ECDA"/>
</svg>
