<svg width="19" height="19" viewBox="0 0 19 19" fill="none" xmlns="http://www.w3.org/2000/svg">
<path d="M16.918 1.83203C18.043 2.95703 18.5586 4.31641 18.4648 5.91016C18.3945 7.48047 17.5742 9.07422 16.0039 10.6914L13.0156 13.7148C12.0781 14.582 11.0586 15.1797 9.95703 15.5078C8.83203 15.8594 7.76562 16.0234 6.75781 16C5.72656 16 4.89453 15.8945 4.26172 15.6836L1.94141 18.0039C1.54297 18.332 1.14453 18.332 0.746094 18.0039C0.417969 17.6055 0.417969 17.207 0.746094 16.8086L3.06641 14.4883C2.85547 13.8555 2.75 13.0234 2.75 11.9922C2.72656 10.9609 2.89062 9.89453 3.24219 8.79297C3.57031 7.66797 4.16797 6.64844 5.03516 5.73438L8.05859 2.74609C9.81641 1.05859 11.5391 0.226562 13.2266 0.25C14.6562 0.273438 15.8867 0.800781 16.918 1.83203ZM5.66797 14.2773C5.99609 14.3008 6.34766 14.3125 6.72266 14.3125C7.33203 14.3359 8.10547 14.2422 9.04297 14.0312C9.95703 13.7969 10.8242 13.3281 11.6445 12.625H7.32031L5.66797 14.2773ZM12.8398 11.4648L14.7734 9.49609C14.8438 9.44922 14.9023 9.40234 14.9492 9.35547C14.9727 9.30859 14.9961 9.27344 15.0195 9.25H10.6602L8.44531 11.4648H12.8398ZM15.9336 8.08984C16.543 7.17578 16.8359 6.27344 16.8125 5.38281C16.7891 4.49219 16.4492 3.69531 15.793 2.99219C15.0664 2.26562 14.2227 1.90234 13.2617 1.90234C11.9258 1.92578 10.6133 2.59375 9.32422 3.90625L6.30078 6.92969C5.45703 7.84375 4.91797 8.875 4.68359 10.0234C4.47266 11.1719 4.42578 12.1797 4.54297 13.0469L11.4336 6.15625C11.8086 5.80469 12.207 5.80469 12.6289 6.15625C12.957 6.50781 12.957 6.89453 12.6289 7.31641L11.8203 8.08984H15.9336Z" fill="#F3ECDA"/>
</svg>
